<svg width="32" height="29" viewBox="0 0 32 29" fill="none" xmlns="http://www.w3.org/2000/svg">
<path d="M16.784 12.6802H14.3516V14.8854H16.784V12.6802Z" fill="white"/>
<path d="M27.4865 2.20527H26.027V0H23.5946V2.20527H7.54054V0H5.10811V2.20527H3.64865C1.63678 2.20527 0 3.6892 0 5.51318V24.9196C0 26.7436 1.63678 28.2275 3.64865 28.2275H11.7365H11.9189H16.1612C15.3203 27.5982 14.5879 26.8541 13.9925 26.0222H11.9189H11.7365H3.64865C2.97803 26.0222 2.43243 25.5276 2.43243 24.9196V10.3648H28.7027V12.5701V12.6803V12.6858C29.6202 13.2256 30.441 13.8896 31.1351 14.6519V12.6803V12.5701V5.51318C31.1351 3.6892 29.4984 2.20527 27.4865 2.20527ZM28.7027 8.15951H2.43243V5.51318C2.43243 4.90519 2.97803 4.41055 3.64865 4.41055H5.10811V6.61582H7.54054V4.41055H23.5946V6.61582H26.027V4.41055H27.4865C28.1571 4.41055 28.7027 4.90519 28.7027 5.51318V8.15951Z" fill="white"/>
<path d="M22.9256 13.3418C18.399 13.3418 14.7162 16.6806 14.7162 20.7846C14.7162 24.8886 18.399 28.2274 22.9256 28.2274C27.4523 28.2274 31.1351 24.8886 31.1351 20.7846C31.1351 16.6806 27.4523 13.3418 22.9256 13.3418ZM22.9256 26.0221C19.7402 26.0221 17.1486 23.6726 17.1486 20.7846C17.1486 17.8966 19.7402 15.5471 22.9256 15.5471C26.1111 15.5471 28.7027 17.8966 28.7027 20.7846C28.7027 23.6726 26.1111 26.0221 22.9256 26.0221Z" fill="white"/>
<path d="M24.0809 17.0908H21.6484V21.8873H26.1484V19.682H24.0809V17.0908Z" fill="white"/>
<path d="M11.9188 17.0908H9.48633V19.2961H11.9188V17.0908Z" fill="white"/>
<path d="M7.05401 17.0908H4.62158V19.2961H7.05401V17.0908Z" fill="white"/>
<path d="M7.05401 12.6802H4.62158V14.8854H7.05401V12.6802Z" fill="white"/>
<path d="M7.05401 21.5015H4.62158V23.7067H7.05401V21.5015Z" fill="white"/>
<path d="M11.9188 12.6802H9.48633V14.8854H11.9188V12.6802Z" fill="white"/>
<path d="M11.9188 21.5015H9.48633V23.7067H11.9188V21.5015Z" fill="white"/>
</svg>
