<svg width="31" height="31" viewBox="0 0 31 31" fill="none" xmlns="http://www.w3.org/2000/svg">
<path d="M22.2552 15.5551C21.6595 15.2719 21.0517 15.0279 20.4332 14.8236C22.4362 13.3201 23.7344 10.926 23.7344 8.23438C23.7344 3.69397 20.0405 0 15.5 0C10.9595 0 7.26561 3.69397 7.26561 8.23438C7.26561 10.929 8.56664 13.3254 10.5735 14.8286C8.73478 15.434 7.0095 16.3759 5.49945 17.6179C2.73052 19.8955 0.805311 23.0724 0.0785666 26.5633C-0.149211 27.6572 0.123674 28.7807 0.827108 29.6457C1.52709 30.5064 2.56505 31 3.67475 31H18.5879C19.2567 31 19.7988 30.4579 19.7988 29.7891C19.7988 29.1203 19.2567 28.5782 18.5879 28.5782H3.67475C3.1578 28.5782 2.84592 28.2896 2.70606 28.1176C2.46454 27.8207 2.37106 27.4341 2.44958 27.0569C3.70624 21.0207 9.03049 16.6113 15.179 16.4626C15.2855 16.4667 15.3925 16.4688 15.5 16.4688C15.6086 16.4688 15.7166 16.4666 15.8242 16.4625C17.7084 16.5067 19.5205 16.9367 21.2155 17.7424C21.8196 18.0294 22.5419 17.7726 22.829 17.1686C23.1161 16.5646 22.8593 15.8422 22.2552 15.5551ZM15.7953 14.0394C15.6971 14.0377 15.5986 14.0368 15.5 14.0368C15.4023 14.0368 15.3045 14.0377 15.2069 14.0396C12.1375 13.8864 9.68749 11.3412 9.68749 8.23438C9.68749 5.02933 12.2949 2.42188 15.5 2.42188C18.705 2.42188 21.3125 5.02933 21.3125 8.23438C21.3125 11.3404 18.8637 13.8852 15.7953 14.0394Z" fill="#94A5B7"/>
<path d="M29.7891 24.0371H26.459V20.707C26.459 20.0382 25.9169 19.4961 25.2481 19.4961C24.5793 19.4961 24.0371 20.0382 24.0371 20.707V24.0371H20.707C20.0382 24.0371 19.4961 24.5793 19.4961 25.2481C19.4961 25.9169 20.0382 26.459 20.707 26.459H24.0371V29.7891C24.0371 30.4579 24.5793 31 25.2481 31C25.9169 31 26.459 30.4579 26.459 29.7891V26.459H29.7891C30.4579 26.459 31 25.9169 31 25.2481C31 24.5793 30.4579 24.0371 29.7891 24.0371Z" fill="#94A5B7"/>
</svg>
