<svg width="27" height="22" viewBox="0 0 27 22" fill="none" xmlns="http://www.w3.org/2000/svg">
<path d="M22.1516 8.16127C21.8006 3.74077 18.0543 0.25 13.5 0.25C9.60429 0.25 6.26014 2.75473 5.18111 6.40777C2.10311 7.46541 0 10.352 0 13.6136C0 17.8241 3.46082 21.25 7.71429 21.25H20.25C23.9721 21.25 27 18.2527 27 14.5682C27 11.5623 25.0039 8.98218 22.1516 8.16127ZM18.0389 13.334L14.1818 17.1521C13.9937 17.3383 13.7469 17.4318 13.5 17.4318C13.2531 17.4318 13.0063 17.3383 12.8183 17.1521L8.96111 13.334C8.68532 13.061 8.60239 12.6505 8.75186 12.2935C8.90132 11.9375 9.25329 11.7045 9.64286 11.7045H11.5714V7.88636C11.5714 6.83255 12.4354 5.97727 13.5 5.97727C14.5646 5.97727 15.4286 6.83255 15.4286 7.88636V11.7045H17.3571C17.7467 11.7045 18.0987 11.9375 18.2481 12.2935C18.3976 12.6505 18.3147 13.061 18.0389 13.334Z" fill="white"/>
</svg>
