<svg width="36" height="36" viewBox="0 0 36 36" fill="none" xmlns="http://www.w3.org/2000/svg">
<path d="M35.2496 23.8554C35.2496 18.7175 31.7876 14.2284 26.9057 12.8757C26.5988 5.72397 20.6855 0 13.4596 0C6.03781 0 0 6.03781 0 13.4596C0 15.8783 0.643825 18.2334 1.86639 20.3009L0.0494836 26.8694L6.61817 25.0527C8.51872 26.1766 10.6627 26.8096 12.8754 26.9051C14.2279 31.7873 18.7172 35.2496 23.8554 35.2496C25.9063 35.2496 27.9007 34.7034 29.6531 33.6656L35.1998 35.1998L33.6656 29.6531C34.7034 27.9007 35.2496 25.9063 35.2496 23.8554ZM6.94412 22.8195L3.01178 23.9073L4.09961 19.975L3.85166 19.5872C2.68314 17.759 2.0654 15.6401 2.0654 13.4596C2.0654 7.17674 7.17674 2.0654 13.4596 2.0654C19.7424 2.0654 24.8537 7.17674 24.8537 13.4596C24.8537 19.7424 19.7424 24.8537 13.4596 24.8537C11.279 24.8537 9.16039 24.236 7.33192 23.0674L6.94412 22.8195ZM32.2378 32.2378L29.3199 31.4305L28.9302 31.6841C27.4196 32.6654 25.6645 33.1842 23.8554 33.1842C19.8171 33.1842 16.2686 30.5731 15.0113 26.829C21.1951 26.1161 26.1161 21.1951 26.8293 15.011C30.5731 16.2686 33.1842 19.8171 33.1842 23.8554C33.1842 25.6645 32.6654 27.4196 31.6841 28.9302L31.4305 29.3199L32.2378 32.2378Z" fill="#94A5B7"/>
<path d="M12.4268 18.6577H14.4922V20.7231H12.4268V18.6577Z" fill="#94A5B7"/>
<path d="M15.5253 10.3271C15.5253 10.9136 15.2865 11.455 14.853 11.8517L12.4272 14.072V16.5922H14.4926V14.9815L16.2474 13.3755C17.101 12.5942 17.5907 11.4832 17.5907 10.3271C17.5907 8.04924 15.7378 6.19629 13.4599 6.19629C11.182 6.19629 9.3291 8.04924 9.3291 10.3271H11.3945C11.3945 9.18817 12.321 8.26169 13.4599 8.26169C14.5988 8.26169 15.5253 9.18817 15.5253 10.3271Z" fill="#94A5B7"/>
</svg>
