<svg width="20" height="20" viewBox="0 0 20 20" fill="none" xmlns="http://www.w3.org/2000/svg">
<path d="M14.126 7.26344L11.0545 4.192C10.9052 4.04776 10.7052 3.96795 10.4975 3.96976C10.2899 3.97156 10.0913 4.05483 9.94453 4.20164C9.79772 4.34845 9.71445 4.54705 9.71264 4.75466C9.71084 4.96227 9.79065 5.16228 9.93488 5.31162L13.0063 8.38307C13.0976 8.47613 13.1773 8.5798 13.2439 8.69187C13.232 8.69187 13.2225 8.68554 13.2106 8.68554L0.791813 8.71088C0.581811 8.71088 0.380411 8.7943 0.231917 8.94279C0.0834231 9.09129 0 9.29269 0 9.50269C0 9.71269 0.0834231 9.91409 0.231917 10.0626C0.380411 10.2111 0.581811 10.2945 0.791813 10.2945L13.2059 10.2692C13.228 10.2692 13.2462 10.2581 13.2676 10.2565C13.1974 10.3904 13.1083 10.5136 13.0032 10.6223L9.93172 13.6938C9.85609 13.7668 9.79577 13.8542 9.75427 13.9508C9.71277 14.0474 9.69093 14.1513 9.69001 14.2564C9.6891 14.3616 9.70914 14.4658 9.74895 14.5631C9.78876 14.6604 9.84756 14.7489 9.9219 14.8232C9.99625 14.8975 10.0847 14.9563 10.182 14.9962C10.2793 15.036 10.3835 15.056 10.4887 15.0551C10.5938 15.0542 10.6977 15.0323 10.7943 14.9908C10.8909 14.9493 10.9783 14.889 11.0513 14.8134L14.1228 11.7419C14.7166 11.148 15.0501 10.3425 15.0501 9.50269C15.0501 8.66285 14.7166 7.85739 14.1228 7.26344H14.126Z" fill="#3968DA"/>
<path d="M13.8421 1.58352H15.4257C16.0557 1.58352 16.6599 1.83379 17.1054 2.27927C17.5509 2.72475 17.8011 3.32896 17.8011 3.95896V15.0444C17.8011 15.6744 17.5509 16.2786 17.1054 16.724C16.6599 17.1695 16.0557 17.4198 15.4257 17.4198H13.8421C13.6321 17.4198 13.4307 17.5032 13.2822 17.6517C13.1337 17.8002 13.0503 18.0016 13.0503 18.2116C13.0503 18.4216 13.1337 18.623 13.2822 18.7715C13.4307 18.92 13.6321 19.0034 13.8421 19.0034H15.4257C16.4753 19.0022 17.4816 18.5846 18.2238 17.8424C18.966 17.1002 19.3835 16.094 19.3848 15.0444L19.3848 3.95896C19.3835 2.90934 18.966 1.90306 18.2238 1.16087C17.4816 0.418671 16.4753 0.00115204 15.4257 -0.000104904H13.8421C13.6321 -0.000104904 13.4307 0.0833187 13.2822 0.231812C13.1337 0.380306 13.0503 0.581707 13.0503 0.79171C13.0503 1.00171 13.1337 1.20311 13.2822 1.35161C13.4307 1.5001 13.6321 1.58352 13.8421 1.58352Z" fill="#3968DA"/>
</svg>
