<svg width="20" height="21" viewBox="0 0 20 21" fill="none" xmlns="http://www.w3.org/2000/svg">
<path d="M19.0269 8.14475L15.7939 4.9117C15.6367 4.75988 15.4261 4.67587 15.2076 4.67777C14.9891 4.67966 14.78 4.76732 14.6255 4.92185C14.471 5.07639 14.3833 5.28543 14.3814 5.50397C14.3795 5.7225 14.4635 5.93304 14.6153 6.09024L17.8484 9.32329C17.9444 9.42124 18.0284 9.53038 18.0984 9.64834C18.0859 9.64834 18.0759 9.64167 18.0634 9.64167L4.99119 9.66835C4.77014 9.66835 4.55814 9.75616 4.40183 9.91247C4.24553 10.0688 4.15771 10.2808 4.15771 10.5018C4.15771 10.7229 4.24553 10.9349 4.40183 11.0912C4.55814 11.2475 4.77014 11.3353 4.99119 11.3353L18.0584 11.3086C18.0818 11.3086 18.1009 11.297 18.1234 11.2953C18.0495 11.4363 17.9558 11.566 17.845 11.6804L14.612 14.9134C14.5324 14.9903 14.4689 15.0823 14.4252 15.1839C14.3815 15.2856 14.3585 15.395 14.3576 15.5057C14.3566 15.6163 14.3777 15.7261 14.4196 15.8285C14.4615 15.931 14.5234 16.024 14.6017 16.1023C14.6799 16.1805 14.773 16.2424 14.8754 16.2843C14.9778 16.3262 15.0876 16.3473 15.1983 16.3464C15.3089 16.3454 15.4183 16.3224 15.52 16.2787C15.6217 16.235 15.7136 16.1715 15.7905 16.0919L19.0236 12.8589C19.6486 12.2337 19.9997 11.3859 19.9997 10.5018C19.9997 9.61779 19.6486 8.76995 19.0236 8.14475H19.0269Z" fill="#3968DA"/>
<path d="M5.83433 18.8365H4.16738C3.50422 18.8365 2.86823 18.573 2.39931 18.1041C1.93039 17.6352 1.66695 16.9992 1.66695 16.336V4.66738C1.66695 4.00422 1.93039 3.36823 2.39931 2.89931C2.86823 2.43039 3.50422 2.16695 4.16738 2.16695H5.83433C6.05538 2.16695 6.26738 2.07914 6.42368 1.92283C6.57999 1.76652 6.6678 1.55453 6.6678 1.33348C6.6678 1.11242 6.57999 0.900426 6.42368 0.744119C6.26738 0.587812 6.05538 0.5 5.83433 0.5H4.16738C3.06253 0.501323 2.00331 0.94081 1.22206 1.72206C0.44081 2.50331 0.00132344 3.56253 0 4.66738L0 16.336C0.00132344 17.4409 0.44081 18.5001 1.22206 19.2814C2.00331 20.0626 3.06253 20.5021 4.16738 20.5034H5.83433C6.05538 20.5034 6.26738 20.4156 6.42368 20.2593C6.57999 20.103 6.6678 19.891 6.6678 19.6699C6.6678 19.4489 6.57999 19.2369 6.42368 19.0806C6.26738 18.9243 6.05538 18.8365 5.83433 18.8365Z" fill="#3968DA"/>
</svg>
