<svg width="167.32" height="124.26" version="1.1" viewBox="0 0 44.269 32.876" xmlns="http://www.w3.org/2000/svg">
	<g stroke-linejoin="round" stroke-width=".26458">
		<path d="m11.345 8.3211-11.183 23.983c-0.11627 0.2495 0.12695 0.51487 0.38602 0.42095l35.082-12.769c0.12224-0.0441 0.2032-0.16054 0.2032-0.29026v-11.214c0-0.1707-0.13784-0.30849-0.3085-0.30849h-23.899c-0.11991 0-0.22907 0.0689-0.27992 0.17795z" fill="#338276"/>
		<path d="m0.37667 32.476c-0.02188-0.0317-0.01033-0.0606-0.0045-0.0757l0.06787 0.11192c-0.0236 0-0.04857-0.0143-0.06339-0.0362zm43.451-32.343-31.63 3e-3c-0.12663 0-0.24045 0.0775-0.28733 0.19533l-11.756 31.99c-0.08544 0.21563 0.08303 0.42386 0.28576 0.42386 0.04565 0 0.09267-0.0103 0.13935-0.0339l43.384-22.724c0.10504-0.0524 0.17092-0.15936 0.17092-0.2763l2e-3 -9.268c0-0.17121-0.13837-0.30884-0.30876-0.30884z" fill="#fefefe" stroke="#338276"/>
		<path d="m11.345 8.3211-11.183 23.983c-0.11627 0.2495 0.12695 0.51487 0.38602 0.42095l35.082-12.769c0.12224-0.0441 0.2032-0.16054 0.2032-0.29026v-11.214c0-0.1707-0.13784-0.30849-0.3085-0.30849h-23.899c-0.11991 0-0.22907 0.0689-0.27992 0.17795z" fill="#338276"/>
		<path d="m32.253 17.45-0.17674 0.68008v-1.9554h-0.43179v3.0895h0.49847l0.40586-1.4168 0.1987-0.75878v2.1756h0.43682v-3.0895h-0.53392m-2.0759-0.035c-0.47651 0-0.72389 0.28249-0.72389 0.77683v1.6061c0 0.49418 0.24738 0.77667 0.72389 0.77667s0.72362-0.28249 0.72362-0.77667v-0.41047h-0.45904v0.44132c0 0.22066-0.09684 0.30019-0.25135 0.30019-0.15451 0-0.25161-0.0795-0.25161-0.30019v-1.6684c0-0.2205 0.0971-0.30384 0.25161-0.30384s0.25135 0.0833 0.25135 0.30384v0.3312h0.45904v-0.29972c0-0.49434-0.24712-0.77683-0.72362-0.77683zm-1.7759 0c-0.47677 0-0.72362 0.28249-0.72362 0.77683v1.6061c0 0.49418 0.24685 0.77667 0.72362 0.77667 0.47651 0 0.72389-0.28249 0.72389-0.77667v-0.41047h-0.45931v0.44132c0 0.22066-0.09683 0.30019-0.25135 0.30019-0.15425 0-0.25161-0.0795-0.25161-0.30019v-1.6684c0-0.2205 0.09736-0.30384 0.25161-0.30384 0.15451 0 0.25135 0.0833 0.25135 0.30384v0.3312h0.45931v-0.29972c0-0.49434-0.24738-0.77683-0.72389-0.77683zm-3.3161 1.2316c0 0.21997-0.08339 0.29112-0.23823 0.29112h-0.22944v-1.0462h0.22944c0.15483 0 0.23823 0.0703 0.23823 0.29127m-0.23823-0.73277h-0.71486v3.0895h0.48542v-1.1608h0.22944c0.48574 0 0.7236-0.26871 0.7236-0.76344v-0.40166c0-0.4942-0.23786-0.76362-0.7236-0.76362zm2.0086 2.3788c0 0.22066-0.09684 0.30453-0.25161 0.30453-0.15425 0-0.25108-0.0839-0.25108-0.30453v-1.6684c0-0.2205 0.09683-0.30384 0.25108-0.30384 0.15478 0 0.25161 0.0833 0.25161 0.30384m-0.25161-0.74535c-0.47624 0-0.73693 0.28249-0.73693 0.77683v1.6061c0 0.49418 0.26069 0.77667 0.73693 0.77667 0.47704 0 0.73712-0.28249 0.73712-0.77667v-1.6061c0-0.49434-0.26008-0.77683-0.73712-0.77683zm7.1756 1.3103-0.17647 0.68008v-1.9554h-0.43259v3.0895h0.49873l0.40613-1.4168 0.19817-0.75878v2.1756h0.43708v-3.0895h-0.53418m-7.8532-1.3282c0 0.2208-0.09684 0.30469-0.25143 0.30469-0.15454 0-0.25151-0.0839-0.25151-0.30469v-1.6679c0-0.22097 0.09697-0.30453 0.25151-0.30453 0.15459 0 0.25143 0.0836 0.25143 0.30453m-0.25143-0.74619c-0.47645 0-0.73669 0.28268-0.73669 0.7772v1.6061c0 0.4945 0.26024 0.77683 0.73669 0.77683 0.47685 0 0.7372-0.28233 0.7372-0.77683v-1.6061c0-0.49452-0.26034-0.7772-0.7372-0.7772zm8.1533 3.1248h0.4855v-3.0891h-0.4855m-12.544 3.0891h0.48556v-2.648h0.55173v2.648h0.49402v-3.0891h-1.5313m2.4041 0.44113h0.22963c0.15451 0 0.23839 0.0708 0.23839 0.2913v0.46368c0 0.22047-0.08387 0.29093-0.23839 0.29093h-0.22963m0.95322-0.32176v-0.40203c0-0.49402-0.23804-0.76325-0.7236-0.76325h-0.71505v3.0891h0.48542v-1.161h0.22963c0.48556 0 0.7236-0.26887 0.7236-0.76289zm7.9552 0.43648h0.22992c0.15451 0 0.23812 0.0706 0.23812 0.29146v0.46319c0 0.22066-0.08361 0.29109-0.23812 0.29109h-0.22992m0.95354-0.32193v-0.40134c0-0.49455-0.23786-0.76345-0.72362-0.76345h-0.22992v-1.1608h-0.48497v3.0891h0.71489c0.48577 0 0.72362-0.26905 0.72362-0.76357zm-2.2547 0.76357v-2.648h0.5072v-0.44113h-1.4999v0.44113h0.5072v2.648m-1.2549 0h0.499l-0.6752-1.7125 0.6752-1.3766h-0.48577l-0.63578 1.346v-1.346h-0.48471v3.0891h0.48471v-0.9491l0.15054-0.2823m-0.9837-1.4166v-0.44113h-1.324v3.0891h1.324v-0.44164h-0.83871v-0.90433h0.66674v-0.44113h-0.66674v-0.86091m-5.9712-2.3827h0.55204v1.3234h0.49439v-3.0888h-0.49439v1.3236h-0.55204v-1.3236h-0.48505v3.0888h0.48505m-1.3336-0.71034c0 0.22081-0.09734 0.30455-0.25167 0.30455s-0.2518-0.0837-0.2518-0.30455v-1.6677c0-0.22097 0.09747-0.30469 0.2518-0.30469s0.25167 0.0837 0.25167 0.30469m-0.25167-0.74619c-0.47677 0-0.73688 0.28249-0.73688 0.77635v1.6068c0 0.49434 0.26011 0.77667 0.73688 0.77667 0.47664 0 0.73656-0.28233 0.73656-0.77667v-1.6068c0-0.49386-0.25992-0.77635-0.73656-0.77635zm14.663 0.47645v-0.44097h-1.3242v3.0888h1.3242v-0.44145h-0.83898v-0.90399h0.66674v-0.44198h-0.66674v-0.86041m-10.287 1.6682 0.23444-1.562 0.23357 1.562m0.15004 0.97958h0.48952l-0.49402-3.0888h-0.71055l-0.49418 3.0888h0.44544l0.08424-0.5603h0.59583m-7.2539-2.5285h-0.49455v2.6473h-0.55157v-2.6473h-0.48524v3.0888h1.2709v0.41462h0.47214v-0.84678h-0.21169m12.496-0.89121h0.55165v1.3234h0.49476v-3.0888h-0.49476v1.3236h-0.55165v-1.3236h-0.48497v3.0888h0.48497m-1.7825-1.487h0.22939c0.15425 0 0.23812 0.0706 0.23812 0.29146v0.4632c0 0.22097-0.08387 0.29093-0.23812 0.29093h-0.22939m0.95248-0.32194v-0.40134c0-0.49368-0.23786-0.76363-0.72309-0.76363h-0.22939v-1.1604h-0.48577v3.0888h0.71516c0.48524 0 0.72309-0.26852 0.72309-0.76339zm2.749-0.72365h0.22912c0.15478 0 0.23865 0.0706 0.23865 0.29146v0.4632c0 0.22097-0.08387 0.29093-0.23865 0.29093h-0.22912m0.95328-0.32194v-0.40134c0-0.49368-0.23838-0.76363-0.72415-0.76363h-0.22912v-1.1604h-0.48524v3.0888h0.71436c0.48577 0 0.72415-0.26852 0.72415-0.76339zm-6.5067-0.0174 0.05323-1.8671h0.42296v2.6478h0.4945v-3.0888h-1.3724l-0.07921 2.3344c-0.0092 0.28662-0.07961 0.31781-0.30024 0.31781v0.44126h0.07509c0.48542 0 0.68833-0.22081 0.70608-0.78542zm-7.7062-1.0329-0.17655 0.68008v-1.9552h-0.43235v3.0888h0.49849l0.40631-1.4164 0.19843-0.7591v2.1755h0.43684v-3.0888h-0.53381m-4.4987 2.1092 0.2341-1.562 0.23357 1.562m-0.56464-2.1092-0.49474 3.0888h0.44616l0.08371-0.5603h0.59599l0.08387 0.5603h0.48971l-0.49415-3.0888m18.464 0h-0.48577v3.0888h0.48577m-20.471-1.7652h-0.55175v-1.3236h-0.48537v3.0888h0.48537v-1.3234h0.55175v1.3234h0.49418v-3.0888h-0.49418z" fill="#fefefe"/>
	</g>
	<g fill="#338276" stroke-linejoin="round" stroke-width=".26458">
		<path d="m17.041 2.2126h-0.52175v1.4386h-0.28834v-1.4386h-0.51709v-0.23443h1.3272z"/>
		<path d="m17.862 2.8526 0.33538-0.87451h0.32297l-0.58255 1.3882-0.05286 0.10454c-0.07668 0.13644-0.20087 0.20449-0.37242 0.20449l-0.11938-7e-3 0.0022-0.22976c0.01823 3e-3 0.0508 5e-3 0.09766 5e-3 0.08268 0 0.14107-0.0353 0.17465-0.10578l0.05979-0.14142-0.57223-1.218h0.3171z"/>
		<path d="m19.033 2.7963h0.34919c0.1035 0 0.1824-0.0243 0.23685-0.0729 0.05424-0.0487 0.08144-0.11901 0.08144-0.21099 0-0.0904-0.02754-0.16261-0.08265-0.21652-0.05514-0.0541-0.13107-0.0818-0.22756-0.0834h-0.35726m0 0.81803v0.62062h-0.29074v-1.6731h0.63994c0.1869 0 0.33538 0.0487 0.44526 0.14607 0.10988 0.0975 0.16486 0.22633 0.16486 0.3867 0 0.16399-0.05376 0.29162-0.16139 0.3829-0.10768 0.0913-0.25823 0.13679-0.45219 0.13679z"/>
		<path d="m21.272 1.9781h0.29075v1.6731h-0.29075v-1.1915l-0.73434 1.1915h-0.29059v-1.6731h0.29059v1.1928z"/>
		<path d="m22.747 2.4344c0-0.0751-0.02844-0.13488-0.0849-0.17931-0.05688-0.0444-0.13385-0.0665-0.23119-0.0665-0.08334 0-0.15314 0.0219-0.20912 0.066-0.05598 0.0439-0.08387 0.10077-0.08387 0.17053h-0.28955c0-0.0911 0.02532-0.17225 0.07599-0.24357 0.05043-0.0713 0.12057-0.1266 0.21031-0.16605 0.08956-0.0394 0.18827-0.0593 0.29625-0.0593 0.19156 0 0.34035 0.0419 0.44648 0.1254 0.10612 0.0835 0.15917 0.20033 0.15917 0.35053 0 0.0756-0.02289 0.14538-0.0689 0.20894-0.04601 0.0637-0.11041 0.11386-0.19312 0.15056 0.0934 0.0322 0.16504 0.0811 0.21428 0.14641 0.04945 0.0656 0.07427 0.14692 0.07427 0.24424 0 0.1502-0.05755 0.26942-0.17264 0.35795-0.1147 0.0885-0.26799 0.13279-0.45955 0.13279-0.11782 0-0.2246-0.021-0.31985-0.0632-0.09543-0.0422-0.16711-0.0996-0.21497-0.17224-0.04792-0.0729-0.07183-0.15642-0.07183-0.25064h0.28956c0 0.072 0.02995 0.1328 0.08974 0.18209 0.05958 0.0494 0.13557 0.0742 0.22735 0.0742 0.10266 0 0.18518-0.0241 0.24772-0.0724 0.06233-0.0484 0.09369-0.1111 0.09369-0.18862 0-0.0942-0.02741-0.16259-0.08234-0.20497-0.05461-0.0426-0.13486-0.0639-0.24048-0.0639h-0.19653v-0.22978h0.18605c0.20531 0 0.30797-0.0832 0.30797-0.24926z"/>
		<path d="m23.71 1.9781 0.48267 1.2824 0.48143-1.2824h0.37568v1.6731h-0.28956v-0.55156l0.02895-0.73775-0.49418 1.2893h-0.20812l-0.49296-1.2881 0.02876 0.73654v0.55156h-0.28937v-1.6731z"/>
		<path d="m27.004 1.9781h0.29077v1.6731h-0.29077v-1.1915l-0.73444 1.1915h-0.29056v-1.6731h0.29056v1.1928z"/>
		<path d="m29.254 1.9781h0.29077v1.6731h-0.29077v-1.1915l-0.73447 1.1915h-0.29051v-1.6731h0.29051v1.1928z"/>
		<path d="m31.221 3.6512h-0.28945v-0.7424h-0.74796v0.7424h-0.29104v-1.6731h0.29104v0.69623h0.74796v-0.69623h0.28945z"/>
		<path d="m31.899 3.4192h0.71701v-1.2066h-0.48841l-0.02752 0.47112c-0.02064 0.31487-0.08758 0.55998-0.20108 0.7355zm1.2044 0.64335h-0.27596v-0.41132h-1.1017v0.41132h-0.28045l-0.0093-0.64335h0.13441c0.06667-0.0644 0.11985-0.15811 0.15954-0.28093 0.03995-0.123 0.06562-0.26217 0.07726-0.41772l0.04366-0.7424h1.0549v1.441h0.21246z"/>
		<path d="m33.939 2.8526 0.33549-0.87451h0.32279l-0.58234 1.3882-0.05291 0.10454c-0.07673 0.13644-0.20082 0.20449-0.37253 0.20449l-0.11932-7e-3 0.0021-0.22976c0.01852 3e-3 0.05106 5e-3 0.09789 5e-3 0.08255 0 0.14102-0.0353 0.17462-0.10578l0.05979-0.14142-0.57228-1.218h0.31723z"/>
		<path d="m36.096 3.1066c-0.01693 0.17846-0.08255 0.31763-0.1979 0.41769-0.11456 0.10009-0.26749 0.14986-0.45825 0.14986-0.13335 0-0.25082-0.0315-0.35215-0.0946-0.1016-0.0632-0.17965-0.15311-0.23495-0.26974-0.0553-0.11628-0.08387-0.25148-0.08652-0.40547v-0.15623c0-0.15779 0.02831-0.29697 0.08414-0.4172 0.05609-0.12024 0.13626-0.21291 0.24077-0.27802 0.10451-0.0651 0.22542-0.0977 0.36247-0.0977 0.18494 0 0.33337 0.0499 0.44582 0.15003 0.11271 0.0999 0.17833 0.24132 0.19658 0.42443h-0.28971c-0.01376-0.12024-0.04868-0.20688-0.10504-0.26028-0.05609-0.053-0.1389-0.0798-0.24765-0.0798-0.12647 0-0.2233 0.0462-0.2913 0.13849-0.06773 0.0925-0.10239 0.22789-0.10398 0.40652v0.14848c0 0.18103 0.03228 0.31885 0.0971 0.41409 0.06456 0.0951 0.15954 0.14245 0.28442 0.14245 0.1143 0 0.20002-0.0255 0.25744-0.0768 0.05768-0.0515 0.09392-0.13676 0.10901-0.2563z"/>
		<path d="m37.564 2.2126h-0.52175v1.4386h-0.28865v-1.4386h-0.51672v-0.23443h1.3271z"/>
		<path d="m38.074 2.7963h0.34924c0.10372 0 0.1823-0.0243 0.23654-0.0729 0.0545-0.0487 0.0815-0.11901 0.0815-0.21099 0-0.0904-0.0275-0.16261-0.0825-0.21652-0.055-0.0541-0.13123-0.0818-0.22754-0.0834h-0.35718m0 0.81803v0.62062h-0.29077v-1.6731h0.64001c0.1868 0 0.33496 0.0487 0.44503 0.14607 0.11006 0.0975 0.16509 0.22633 0.16509 0.3867 0 0.16399-0.054 0.29162-0.16139 0.3829-0.10768 0.0913-0.25823 0.13679-0.45243 0.13679z"/>
		<path d="m40.313 1.9781h0.29051v1.6731h-0.29051v-1.1915l-0.7342 1.1915h-0.29077v-1.6731h0.29077v1.1928z"/>
		<path d="m41.189 2.5011c0 0.0942 0.0265 0.16759 0.0794 0.22067 0.0526 0.0529 0.13202 0.0791 0.23785 0.0791h0.26987v-0.58824h-0.26987c-0.10742 0-0.18705 0.0257-0.23891 0.077-0.0521 0.0513-0.0783 0.12178-0.0783 0.21152zm0.5871 1.1501v-0.62512h-0.32384l-0.32332 0.62512h-0.31114l0.37332-0.71124c-0.19446-0.092-0.29183-0.24254-0.29183-0.45164 0-0.16002 0.0529-0.28473 0.15822-0.37395 0.1053-0.0892 0.25214-0.1347 0.44052-0.13625h0.56858v1.6731z"/>
		<path d="m21.514 5.0365h-0.77223v1.4386h-0.28955v-1.6731h1.0618z"/>
		<path d="m22.8 5.5949c0-0.18536-0.03514-0.32749-0.10506-0.42634-0.07011-0.0989-0.16968-0.14829-0.29818-0.14829-0.12573 0-0.22391 0.0492-0.2949 0.14776-0.0708 0.0985-0.10694 0.2377-0.1085 0.41772v0.0965c0 0.18397 0.03585 0.32607 0.1075 0.42632 0.07146 0.10043 0.17102 0.15057 0.29797 0.15057 0.12885 0 0.22791-0.0491 0.29733-0.1471 0.06924-0.098 0.10385-0.24135 0.10385-0.42979m0.29074 0c0 0.16399-0.02839 0.30781-0.08509 0.43151-0.05665 0.12369-0.13779 0.21875-0.24288 0.28508-0.10541 0.0663-0.22664 0.0992-0.36396 0.0992-0.13557 0-0.25632-0.0329-0.36239-0.0992-0.10612-0.0663-0.18809-0.16073-0.24582-0.28336-0.05805-0.12248-0.08734-0.2639-0.088-0.4241v-0.0942c0-0.16314 0.02892-0.30713 0.08681-0.43201 0.05786-0.12488 0.13935-0.2205 0.24476-0.28664 0.10541-0.0663 0.22616-0.0994 0.36258-0.0994 0.13626 0 0.2572 0.0327 0.36242 0.0982 0.10541 0.0656 0.18674 0.15983 0.24426 0.28267 0.05736 0.12298 0.08647 0.26596 0.08731 0.42925z"/>
		<path d="m24.656 5.9304c-0.01691 0.17845-0.08271 0.31762-0.19759 0.41771-0.11491 0.10009-0.26786 0.14986-0.45854 0.14986-0.13332 0-0.25079-0.0315-0.35223-0.0945-0.10147-0.0632-0.17968-0.15314-0.23479-0.26977-0.0553-0.11628-0.08406-0.25151-0.08649-0.40549v-0.15624c0-0.15776 0.02807-0.29696 0.08406-0.41718 0.05598-0.12023 0.13628-0.21291 0.24066-0.27821 0.10454-0.0649 0.22547-0.0975 0.36258-0.0975 0.18465 0 0.33332 0.0499 0.44595 0.15004 0.1125 0.0999 0.17793 0.2413 0.1964 0.42441h-0.28956c-0.01381-0.12022-0.04876-0.20703-0.10528-0.26026-0.05612-0.053-0.13882-0.0798-0.24751-0.0798-0.12642 0-0.22341 0.0462-0.29128 0.13851-0.06771 0.0925-0.10247 0.22788-0.10403 0.40649v0.14849c0 0.18105 0.03238 0.31884 0.09715 0.41411 0.06458 0.0951 0.15949 0.14245 0.28437 0.14245 0.11422 0 0.2-0.0255 0.25733-0.0768 0.05755-0.0515 0.0939-0.13676 0.10924-0.25632z"/>
		<path d="m26.125 5.0365h-0.52175v1.4386h-0.28836v-1.4386h-0.51691v-0.23445h1.327z"/>
		<path d="m27.322 5.7282h-0.68738v0.51487h0.80352v0.23203h-1.094v-1.6731h1.0858v0.23445h-0.79532v0.46177h0.68738z"/>
		<path d="m28.999 6.4751h-0.28971v-1.4386h-0.73659v1.4386h-0.28971v-1.6731h1.316z"/>
		<path d="m29.64 5.6202h0.34924c0.10345 0 0.1823-0.0243 0.2368-0.0729 0.05424-0.0487 0.08149-0.11901 0.08149-0.21097 0-0.0905-0.02778-0.16264-0.08255-0.21653-0.0553-0.0541-0.13123-0.0818-0.2278-0.0834h-0.35718m0 0.81799v0.62065h-0.29077v-1.6731h0.64002c0.18679 0 0.33522 0.0487 0.44529 0.14608 0.1098 0.0975 0.16483 0.22634 0.16483 0.38671 0 0.16396-0.05371 0.29159-0.16139 0.38289s-0.25849 0.13676-0.45216 0.13676z"/>
		<path d="m31.878 4.802h0.29051v1.6731h-0.29051v-1.1915l-0.73421 1.1915h-0.29077v-1.6731h0.29077v1.1929z"/>
		<path d="m33.542 4.802h0.29051v1.6731h-0.29051v-1.1915l-0.73447 1.1915h-0.29077v-1.6731h0.29077v1.1929z"/>
		<path d="m34.558 4.802 0.48259 1.2824 0.48153-1.2824h0.3757v1.6731h-0.28971v-0.55156l0.0291-0.73775-0.49423 1.2893h-0.20822l-0.49264-1.2881 0.02857 0.73656v0.55156h-0.28945v-1.6731z"/>
		<path d="m37.518 5.9304c-0.0169 0.17845-0.0825 0.31762-0.19764 0.41771-0.11483 0.10009-0.26775 0.14986-0.45851 0.14986-0.13335 0-0.25082-0.0315-0.35216-0.0945-0.1016-0.0632-0.17991-0.15314-0.23494-0.26977-0.05503-0.11628-0.08387-0.25151-0.08625-0.40549v-0.15624c0-0.15776 0.02805-0.29696 0.08387-0.41718 0.05609-0.12023 0.13626-0.21291 0.24103-0.27821 0.10424-0.0649 0.22489-0.0975 0.3622-0.0975 0.18495 0 0.33337 0.0499 0.44582 0.15004 0.11271 0.0999 0.17833 0.2413 0.19658 0.42441h-0.28971c-0.0138-0.12022-0.0487-0.20703-0.10504-0.26026-0.0564-0.053-0.1389-0.0798-0.24765-0.0798-0.12673 0-0.2233 0.0462-0.29129 0.13851-0.06773 0.0925-0.10239 0.22788-0.10372 0.40649v0.14849c0 0.18105 0.03228 0.31884 0.09684 0.41411 0.06455 0.0951 0.15955 0.14245 0.28443 0.14245 0.11429 0 0.20002-0.0255 0.25743-0.0768 0.0571-0.0515 0.0939-0.13676 0.10901-0.25632z"/>
		<path d="m38.987 5.0365h-0.52175v1.4386h-0.28866v-1.4386h-0.51672v-0.23445h1.3271z"/>
		<path d="m39.497 5.7203v0.52281h0.32306c0.091 0 0.16218-0.0228 0.21351-0.0679 0.0513-0.0451 0.0767-0.10802 0.0767-0.18846 0-0.17398-0.0889-0.26267-0.2667-0.26648m-0.3466-0.21391h0.28496c0.0902 0 0.16086-0.0205 0.21192-0.0613 0.0508-0.041 0.0762-0.0991 0.0762-0.17418 0-0.0827-0.0233-0.14245-0.0704-0.1793-0.0471-0.0367-0.12038-0.0551-0.22013-0.0551h-0.28257m-0.29077 1.4386v-1.6731h0.57334c0.18891 0 0.33337 0.0379 0.43206 0.11388 0.0987 0.0758 0.14817 0.18875 0.14817 0.33879 0 0.0768-0.0204 0.14573-0.0617 0.20688-0.0418 0.0613-0.10213 0.10884-0.18203 0.1426 0.0905 0.0245 0.16033 0.0707 0.20981 0.13833 0.0495 0.0679 0.0741 0.14919 0.0741 0.24425 0 0.15711-0.05 0.27768-0.15107 0.36192-0.10081 0.0842-0.24474 0.12644-0.43285 0.12644z"/>
		<path d="m41.06 5.8512h0.48524l-0.24288-0.69399m0.32437 0.92846h-0.64822l-0.13572 0.38946h-0.30189l0.63181-1.6731h0.26088l0.63287 1.6731h-0.30321z"/>
	</g>
</svg>
