<svg id="Layer_1" enable-background="new 0 0 512 512" height="512" viewBox="0 0 512 512" width="512" xmlns="http://www.w3.org/2000/svg"><g><path d="m362.82 363.729c-23.284 0-42.227 18.942-42.227 42.227 0 10.99 8.94 19.931 19.931 19.931h52.751c13.765 0 24.964-11.199 24.964-24.964v-12.229c0-13.765-11.199-24.964-24.964-24.964h-30.455zm40.419 24.964v12.229c0 5.494-4.47 9.964-9.964 9.964h-52.751c-2.719 0-4.931-2.212-4.931-4.931 0-15.013 12.214-27.227 27.227-27.227h30.455c5.495.001 9.964 4.471 9.964 9.965z"/><path d="m118.725 363.729c-13.765 0-24.964 11.199-24.964 24.964v12.229c0 13.765 11.199 24.964 24.964 24.964h52.751c10.99 0 19.931-8.94 19.931-19.931 0-23.284-18.942-42.227-42.227-42.227h-30.455zm57.681 42.227c0 2.719-2.212 4.931-4.931 4.931h-52.751c-5.494 0-9.964-4.47-9.964-9.964v-12.229c0-5.494 4.47-9.964 9.964-9.964h30.455c15.013-.001 27.227 12.213 27.227 27.226z"/><path d="m292.943 376.065h-73.887c-9.697 0-9.697 15 0 15h73.887c9.698 0 9.698-15 0-15z"/><path d="m292.943 406.5h-73.887c-9.697 0-9.697 15 0 15h73.887c9.698 0 9.698-15 0-15z"/><path d="m127.214 108.657h257.572c31.579 0 31.63-49.089 0-49.089h-257.572c-31.58 0-31.63 49.089 0 49.089zm0-34.089h257.572c11.939 0 12.485 19.089 0 19.089h-257.572c-11.939 0-12.486-19.089 0-19.089z"/><path d="m480.881 74.979-23.21-8.545c-.149-20.115-16.552-36.434-36.701-36.434h-39.443c-3.484-17.096-18.635-30-36.745-30h-177.563c-18.11 0-33.261 12.904-36.745 30h-39.444c-20.149 0-36.552 16.319-36.701 36.434l-23.211 8.545c-18.612 6.853-31.118 24.784-31.118 44.618v106.966c0 28.198 43.833 28.244 43.833 0v-106.23c0-4.242 7.063-6.633 10.489-7.246v160.962 41.746 112.444c0 19.301 14.975 35.158 33.915 36.591v19.337c0 15.348 12.485 27.833 27.832 27.833h14.645c15.347 0 27.832-12.485 27.832-27.833v-19.22h194.908v19.22c0 15.348 12.485 27.833 27.832 27.833h14.645c15.347 0 27.832-12.485 27.832-27.833v-19.337c18.94-1.433 33.915-17.291 33.915-36.591v-16.853c0-9.697-15-9.697-15 0v16.853c0 11.97-9.738 21.708-21.708 21.708h-329.94c-11.97 0-21.708-9.738-21.708-21.708v-103.332c61.798 12.106 123.41 23.332 186.678 23.33 63.272-.001 124.864-11.221 186.678-23.33v46.145c0 9.697 15 9.697 15 0v-55.257-202.708c3.32.4 10.489 3.018 10.489 7.246v106.229c0 28.2 43.833 28.244 43.833 0v-106.965c0-19.835-12.506-37.766-31.119-44.618zm-337.335 409.188c0 7.076-5.757 12.833-12.832 12.833h-14.645c-7.075 0-12.832-5.757-12.832-12.833v-18.488h40.309zm265.217 0c0 7.076-5.757 12.833-12.832 12.833h-14.645c-7.075 0-12.832-5.757-12.832-12.833v-18.488h40.309zm-150.523-151.037 184.438-184.438v32.405l-151.051 151.051c-11.126.612-22.294.94-33.387.982zm-91.021-318.13h177.563c9.778 0 18.119 6.27 21.215 15h-219.993c3.096-8.73 11.436-15 21.215-15zm-97.897 51.708c0-11.97 9.739-21.708 21.708-21.708h329.94c11.97 0 21.708 9.738 21.708 21.708v4.959 51.628h-296.2c-9.697 0-9.697 15 0 15h40.492l-117.648 117.646v-117.646h31.938c9.697 0 9.697-15 0-15h-31.938zm0 242.914v-32.467l138.861-138.86h59.514l-175.757 175.757zm-27.495-207.919c-7.772 2.861-12.994 10.348-12.994 18.63v106.229c0 8.94-13.833 8.94-13.833 0v-106.965c0-13.577 8.561-25.851 21.301-30.542l18.021-6.635v14.683zm67.852 215.824 179.232-179.232h142.95l-194.835 194.835c-42.876-1.55-85.279-7.383-127.347-15.603zm288.074.895c-37.123 7.273-63.892 10.212-84.258 13.073l129.183-129.183v107.311zm99.247-91.859c0 8.941-13.833 8.941-13.833 0v-106.23c0-8.282-5.222-15.769-12.993-18.63l-12.496-4.601v-14.682l18.021 6.635c12.74 4.691 21.301 16.965 21.301 30.542z"/></g></svg>